<?xml version="1.0" encoding="UTF-8"?>
<svg version="1.1" viewBox="0 0 136.53 136.53" xmlns="http://www.w3.org/2000/svg">
  <path d="m82.354.63281v20.098h-22.586v29.426h22.586v19.137h30.9v-19.137h22.85v-29.426h-22.85v-20.098h-30.9zm-81.758 82.203v29.178c0 16.156 7.9977 24.234 23.994 24.234 16.075 0 24.111-8.1023 24.111-24.305v-29.107h-16.777v29.178c0 6.546-2.4451 9.8184-7.334 9.8184-4.8498 0-7.2754-3.2963-7.2754-9.8887v-29.107h-16.719zm52.062.13867v51.531h16.484v-14.762l10.268 14.762h20.943l-17.014-20.543c7.0009-2.5998 10.502-7.4277 10.502-14.484 0-5.7103-2.2093-10.026-6.6289-12.951-3.5591-2.3677-7.9388-3.5527-13.141-3.5527h-21.414zm50.992 0v51.531h32.678v-13.926h-16.133v-37.605h-16.545zm-33.979 12.883h1.1133c1.3689 0 2.5827.30272 3.6387.90625 1.3298.74281 1.9941 1.8562 1.9941 3.3418 0 1.5785-.64488 2.7635-1.9355 3.5527-1.0169.64993-2.2502.97461-3.6973.97461h-1.4648c-.039111-.04648-.099512-.07031-.17773-.07031v-8.6348h.29492c.078222-.046412.15615-.070312.23438-.070312z"/>
</svg>
