<svg version="1.1" viewBox="0 0 128 128" xmlns="http://www.w3.org/2000/svg" xmlns:xlink="http://www.w3.org/1999/xlink">
 <defs>
  <filter id="k" x="-.056272" y="-.040587" width="1.1125" height="1.0812">
   <feGaussianBlur stdDeviation="2.078"/>
  </filter>
  <filter id="i" x="-.072649" y="-.0524" width="1.1453" height="1.1048">
   <feGaussianBlur stdDeviation="2.644"/>
  </filter>
  <filter id="n" x="-.5165" y="-.58537" width="2.033" height="2.1707">
   <feGaussianBlur stdDeviation="7.264"/>
  </filter>
  <filter id="m" x="-.14151" y="-.33963" width="1.283" height="1.6793">
   <feGaussianBlur stdDeviation="1.362"/>
  </filter>
  <filter id="q" x="-.75388" y="-.69591" width="2.5078" height="2.3918">
   <feGaussianBlur stdDeviation="10.562"/>
  </filter>
  <radialGradient id="j" cx="-3.912" cy="-.59" r="44.313" gradientTransform="matrix(.13117 .93653 -1.3731 .19231 15.359 6.309)" gradientUnits="userSpaceOnUse">
   <stop stop-color="#fff" offset="0"/>
   <stop stop-color="#fff" stop-opacity="0" offset="1"/>
  </radialGradient>
  <radialGradient id="l" cx="-179.43" cy="932.52" r="18.267" gradientTransform="matrix(1 0 0 .61679 0 357.35)" gradientUnits="userSpaceOnUse">
   <stop stop-color="#00002b" offset="0"/>
   <stop stop-color="#00002b" stop-opacity="0" offset="1"/>
  </radialGradient>
  <radialGradient id="o" cx="302.86" cy="516.65" r="20.135" gradientTransform="matrix(1 0 0 1.0829 0 -42.81)" gradientUnits="userSpaceOnUse">
   <stop stop-color="#fff" offset="0"/>
   <stop stop-color="#fff" stop-opacity="0" offset="1"/>
  </radialGradient>
  <radialGradient id="p" cx="302.86" cy="516.65" r="18.393" gradientTransform="matrix(1 0 0 1.0816 0 -42.156)" gradientUnits="userSpaceOnUse">
   <stop stop-color="#00002a" offset="0"/>
   <stop stop-color="#00002a" stop-opacity="0" offset="1"/>
  </radialGradient>
 </defs>
 <g transform="matrix(-1 0 0 1 131.31 -924.36)">
  <path d="m68 928.46c-20.149 0-36.469 13.712-36.469 30.625 0 15.587 13.866 28.453 31.813 30.375v5.844l-19.719-7.719c-0.913-4.73-5.042-8.313-10.031-8.313-5.661 0-10.25 4.59-10.25 10.25 0 5.661 4.589 10.25 10.25 10.25a10.21 10.21 0 0 0 9.062-5.468l20.688 8.125v10.875l-0.094-0.031-6.063 21.28h-18.25v16.782h24.783v-15.562l4.687-16.47h3.875l14.938 7.407v11.469h24.75v-16.75h-20.5l-18.75-9.281-0.313 0.718v-10.78l19.563-3.688c1.742 3.174 5.092 5.312 8.969 5.312 5.66 0 10.25-4.589 10.25-10.25v-0.062c-0.049-5.627-4.624-10.188-10.25-10.188-5.114 0-9.322 3.76-10.094 8.656l-18.438 3.47v-5.845c18.068-1.828 32.063-14.747 32.063-30.406v-0.25c-0.171-16.81-16.442-30.375-36.469-30.375z" display="none" fill="#333" filter="url(#i)" stroke="#00002a" stroke-width=".186"/>
  <path d="m64 926.46c-20.149 0-36.469 13.712-36.469 30.625 0 15.587 13.866 28.453 31.813 30.375v5.844l-19.719-7.719c-0.913-4.73-5.042-8.313-10.031-8.313-5.661 0-10.25 4.59-10.25 10.25 0 5.661 4.589 10.25 10.25 10.25a10.21 10.21 0 0 0 9.062-5.468l20.688 8.125v10.875l-0.094-0.032-6.063 21.282h-18.25v16.781h24.783v-15.563l4.687-16.468h3.875l14.938 7.406v11.469h24.75v-16.75h-20.5l-18.75-9.282-0.313 0.72v-10.782l19.563-3.688c1.742 3.175 5.092 5.313 8.969 5.313 5.66 0 10.25-4.59 10.25-10.25v-0.063c-0.049-5.626-4.624-10.187-10.25-10.187-5.114 0-9.322 3.76-10.094 8.656l-18.438 3.469v-5.844c18.068-1.829 32.063-14.747 32.063-30.406v-0.25c-0.171-16.81-16.442-30.375-36.469-30.375z" fill="#000028" stroke="#00002a" stroke-width=".186"/>
  <path transform="translate(0 924.36)" d="m64 2.094c-20.149 0-36.469 13.712-36.469 30.625 0 15.587 13.866 28.453 31.813 30.375v5.843l-19.719-7.717c-0.913-4.73-5.042-8.313-10.031-8.313-5.661 0-10.25 4.59-10.25 10.25 0 5.661 4.589 10.25 10.25 10.25a10.21 10.21 0 0 0 9.062-5.469l20.688 8.126v10.874l-0.094-0.03-6.063 21.28h-18.25v16.782h24.783v-15.563l4.687-16.469h3.875l14.938 7.407v11.469h24.75v-16.75h-20.5l-18.75-9.282-0.313 0.719v-10.782l19.563-3.689c1.742 3.175 5.092 5.313 8.969 5.313 5.66 0 10.25-4.59 10.25-10.25v-0.063c-0.049-5.626-4.624-10.187-10.25-10.187-5.114 0-9.322 3.76-10.094 8.656l-18.438 3.469v-5.844c18.068-1.829 32.063-14.747 32.063-30.406v-0.25c-0.172-16.809-16.443-30.374-36.47-30.374z" display="none" fill="url(#j)" filter="url(#k)" opacity=".862"/>
  <g fill="#edeceb">
   <path transform="matrix(.15935 .01289 -.00538 .17517 6.169 881.1)" d="M320 516.648a17.143 18.571 0 01-17.106 18.571 17.143 18.571 0 01-17.18-18.492 17.143 18.571 0 0117.033-18.65A17.143 18.571 0 01320 516.489" stroke="#00002a"/>
   <path d="M76.5 943.862c-2.216 0-4 1.784-4 4v6.5H61c-2.216 0-4 1.784-4 4v2c0 2.216 1.784 4 4 4h11.5v5.5c0 2.216 1.784 4 4 4h1c2.216 0 4-1.784 4-4v-5.5H87c2.216 0 4-1.784 4-4v-2c0-2.216-1.784-4-4-4h-5.5v-6.5c0-2.216-1.784-4-4-4z" stroke="#000010" stroke-opacity=".686" stroke-width=".255"/>
   <rect transform="rotate(-13.85)" x="-191.43" y="927.52" width="24" height="10" rx="4" ry="4" stroke="#000010" stroke-opacity=".686" stroke-width=".255"/>
  </g>
  <rect transform="rotate(-13.85)" x="-191.43" y="927.52" width="24" height="10" rx="4" ry="4" fill="#fff" filter="url(#m)" stroke="url(#l)" stroke-width=".255"/>
  <path transform="translate(0 924.36)" d="M76.5 19.5c-2.216 0-4 1.784-4 4V30H61c-2.216 0-4 1.784-4 4v2c0 2.216 1.784 4 4 4h11.5v5.5c0 2.216 1.784 4 4 4h1c2.216 0 4-1.784 4-4V40H87c2.216 0 4-1.784 4-4v-2c0-2.216-1.784-4-4-4h-5.5v-6.5c0-2.216-1.784-4-4-4z" fill="#fff" filter="url(#n)" stroke="#00002b" stroke-width=".255"/>
  <path transform="matrix(.15935 .01289 -.00538 .17517 6.169 881.1)" d="M320 516.648a17.143 18.571 0 01-17.106 18.571 17.143 18.571 0 01-17.18-18.492 17.143 18.571 0 0117.033-18.65A17.143 18.571 0 01320 516.489" fill="url(#o)" filter="url(#q)" stroke="url(#p)" stroke-width=".998"/>
 </g>
</svg>
